<svg width="11" height="10" viewBox="0 0 11 10" fill="none" xmlns="http://www.w3.org/2000/svg">
<path fill-rule="evenodd" clip-rule="evenodd" d="M2.42854 0.292893C2.03802 -0.097631 1.40485 -0.0976311 1.01433 0.292893C0.623805 0.683417 0.623804 1.31658 1.01433 1.70711L4.08582 4.7786L1.01433 7.85008C0.623805 8.24061 0.623805 8.87377 1.01433 9.2643C1.40485 9.65482 2.03802 9.65482 2.42854 9.2643L5.50003 6.19281L8.57151 9.26428C8.96203 9.65481 9.59519 9.65481 9.98572 9.26428C10.3762 8.87376 10.3762 8.24059 9.98572 7.85007L6.91424 4.77859L9.98572 1.70712C10.3762 1.3166 10.3762 0.683431 9.98572 0.292906C9.59519 -0.097618 8.96203 -0.0976183 8.57151 0.292906L5.50003 3.36438L2.42854 0.292893Z" fill="#858585"/>
</svg>
