<svg width="58" height="10" viewBox="0 0 58 10" fill="none" xmlns="http://www.w3.org/2000/svg">
<path fill-rule="evenodd" clip-rule="evenodd" d="M17.0518 7.4235C16.5395 7.42476 16.0382 7.28368 15.6116 7.01814C15.1849 6.75259 14.852 6.37451 14.655 5.93176C14.458 5.48902 14.4058 5.00151 14.5049 4.53095C14.6041 4.0604 14.8501 3.62796 15.2119 3.28837C15.5737 2.94879 16.035 2.71733 16.5374 2.6233C17.0399 2.52927 17.5608 2.57689 18.0342 2.76014C18.5077 2.94339 18.9125 3.25403 19.1973 3.65273C19.482 4.05143 19.6341 4.52026 19.6341 4.99988C19.6345 5.6417 19.3628 6.25745 18.8787 6.71188C18.3945 7.16631 17.7374 7.42226 17.0518 7.4235ZM17.0518 1.23594e-05C16.1533 -0.00185757 15.2688 0.208487 14.4802 0.611576C13.6916 1.01467 13.0244 1.59747 12.5403 2.30605C12.0562 3.01463 11.7709 3.82608 11.7108 4.66529C11.6506 5.50451 11.8176 6.34436 12.1963 7.10711C12.575 7.86987 13.1531 8.53087 13.8771 9.02894C14.6011 9.52701 15.4477 9.84605 16.3384 9.95653C17.2291 10.067 18.1352 9.96536 18.9728 9.66099C19.8104 9.35661 20.5524 8.85935 21.1302 8.21523C20.7773 8.82932 20.2672 9.34401 19.6763 9.6674V9.92553H22.3797V4.97394C22.3733 3.65427 21.8094 2.39058 20.8112 1.4587C19.813 0.526826 18.4615 0.00244102 17.0518 1.23594e-05ZM42.6867 7.47225H39.1706V5.84948H42.6202C43.0514 5.84948 43.5547 6.22923 43.5547 6.66092C43.5547 6.97402 43.2931 7.47236 42.6867 7.47236V7.47225ZM39.1706 2.53165L42.1238 2.53042C42.4437 2.53042 42.9725 2.83985 42.9725 3.33477C42.9725 3.7297 42.6301 4.15453 42.0349 4.15453H39.1706V2.53176V2.53165ZM45.0887 4.7008C45.73 3.78827 45.789 2.5413 45.2031 1.60841C44.913 1.14697 44.5 0.763813 44.0045 0.496316C43.5091 0.228818 42.948 0.0861175 42.376 0.0821388L36.4672 0.0815584V9.92553L43.0787 9.92152C45.1527 9.92152 46.3103 8.31922 46.3103 6.97471C46.3103 5.68104 45.5243 5.03205 45.0887 4.70051V4.7008ZM33.7936 3.70905C34.6808 5.94998 34.7262 7.98316 34.7262 9.92571H31.9818C31.9818 8.34999 31.9227 6.91527 31.5705 5.61822C31.0982 3.87953 30.219 2.61558 29.402 2.61552C28.5849 2.61546 27.7052 3.87953 27.2329 5.61822C26.8806 6.91527 26.8222 8.3126 26.8222 9.92571H24.0778C24.0778 8.15782 24.1226 5.94998 25.0098 3.70905C25.8368 1.62132 27.3821 0.000186311 29.402 0.000186311C31.4219 0.000186311 32.9666 1.62132 33.7936 3.70905ZM7.91078 0.0814412H10.6558V1.11838C10.6566 1.86285 10.4797 2.59807 10.1379 3.2703C9.79618 3.94253 9.29827 4.53477 8.68061 5.00372C9.29827 5.47267 9.79618 6.06491 10.1379 6.73714C10.4797 7.40937 10.6566 8.14459 10.6558 8.88906V9.926H7.91078V8.62935C7.91078 7.98817 7.6387 7.37325 7.15437 6.91987C6.67005 6.46649 6.01316 6.21178 5.32823 6.21178C4.64329 6.21178 3.9864 6.46649 3.50208 6.91987C3.01776 7.37325 2.74566 7.98817 2.74566 8.62935V9.92553H2.12586e-06V8.88859C-0.000681167 8.14408 0.176377 7.40884 0.518228 6.73661C0.860079 6.06439 1.35809 5.47217 1.97584 5.00325C1.35806 4.53436 0.860043 3.94214 0.51819 3.26991C0.176337 2.59768 -0.000707675 1.86243 2.12586e-06 1.11792V0.0812673H2.74566V1.37745C2.74566 2.01863 3.01776 2.63354 3.50208 3.08693C3.9864 3.54031 4.64329 3.79502 5.32823 3.79502C6.01316 3.79502 6.67005 3.54031 7.15437 3.08693C7.6387 2.63354 7.91078 2.01863 7.91078 1.37745V0.0812673V0.0814412ZM52.6721 7.42368C52.1597 7.42493 51.6585 7.28386 51.2319 7.01831C50.8052 6.75276 50.4723 6.37468 50.2753 5.93194C50.0783 5.48919 50.0261 5.00168 50.1252 4.53113C50.2244 4.06057 50.4704 3.62813 50.8322 3.28855C51.194 2.94896 51.6553 2.71751 52.1577 2.62347C52.6601 2.52944 53.181 2.57707 53.6545 2.76032C54.128 2.94357 54.5327 3.25421 54.8175 3.65291C55.1023 4.0516 55.2543 4.52044 55.2543 5.00006C55.2549 5.6419 54.9832 6.25771 54.4991 6.71216C54.0149 7.1666 53.3577 7.42252 52.6721 7.42368ZM57.9994 4.97411C57.992 3.8007 57.5437 2.66715 56.7331 1.77213C55.9224 0.877113 54.8011 0.277728 53.5657 0.0790343C52.3303 -0.11966 51.0596 0.095012 49.9763 0.685426C48.8931 1.27584 48.0663 2.20432 47.641 3.30815C47.2157 4.41197 47.219 5.62071 47.6502 6.7225C48.0815 7.82429 48.9133 8.74885 49.9997 9.33412C51.0862 9.91939 52.358 10.128 53.5923 9.92349C54.8267 9.71895 55.9447 9.11425 56.7505 8.2154C56.3976 8.82949 55.8875 9.34419 55.2966 9.66758V9.92571H58V4.97394H57.9994V4.97411Z" fill="black"/>
</svg>
