<svg width="22" height="22" viewBox="0 0 22 22" fill="none" xmlns="http://www.w3.org/2000/svg">
<path d="M11.0001 1.75C15.9707 1.75 20.0001 5.77944 20.0001 10.75H21.5001C21.5001 4.95101 16.7991 0.25 11.0001 0.25V1.75ZM20.0001 10.75C20.0001 15.7206 15.9707 19.75 11.0001 19.75V21.25C16.7991 21.25 21.5001 16.549 21.5001 10.75H20.0001ZM11.0001 19.75C6.02956 19.75 2.00012 15.7206 2.00012 10.75H0.500122C0.500122 16.549 5.20113 21.25 11.0001 21.25V19.75ZM2.00012 10.75C2.00012 5.77944 6.02956 1.75 11.0001 1.75V0.25C5.20113 0.25 0.500122 4.95101 0.500122 10.75H2.00012Z" fill="#B7BAC6"/>
<path d="M7.51892 7.90626H9.09568C9.16423 6.90079 9.84216 6.26857 10.8933 6.26857C11.9369 6.26857 12.6148 6.90079 12.6148 7.76154C12.6148 8.54611 12.2873 8.9879 11.3656 9.54396C10.322 10.1686 9.8574 10.8541 9.89548 11.9281L9.9031 12.5375H11.4799V12.0729C11.4799 11.2883 11.7617 10.8846 12.7443 10.3057C13.7498 9.70392 14.3439 8.87364 14.3439 7.69298C14.3439 6.0629 12.9881 4.867 10.9771 4.867C8.76814 4.867 7.58748 6.18478 7.51892 7.90626ZM10.7029 16.0643C11.2742 16.0643 11.7084 15.6377 11.7084 15.0817C11.7084 14.5256 11.2742 14.099 10.7029 14.099C10.1469 14.099 9.70505 14.5256 9.70505 15.0817C9.70505 15.6377 10.1469 16.0643 10.7029 16.0643Z" fill="#B7BAC6"/>
</svg>
